<svg width="300" height="83" viewBox="0 0 300 83" fill="none" xmlns="http://www.w3.org/2000/svg">
<path fill-rule="evenodd" clip-rule="evenodd" d="M12.3566 0V18.5657C14.1534 16.9243 16.5448 15.9234 19.1682 15.9234H29.1664V19.2141H19.1682C15.4089 19.2141 12.3565 22.2624 12.3565 26.0258V31.461H12.362V40.3294C12.362 43.8706 10.5401 46.9844 7.78455 48.788C10.5385 50.5933 12.3565 53.7075 12.3565 57.2432L12.3565 64.8065V71.5524C12.3565 75.3117 15.4048 78.3641 19.1682 78.3641H29.1664V81.6548H19.1682C13.5861 81.6548 9.06583 77.1277 9.06583 71.5524L9.06581 67.6144V57.2432C9.06581 53.4986 6.04115 50.4553 2.29799 50.4317L2.2596 50.4318H0V50.4315V47.1411V47.1409H2.25411L2.29867 47.141C6.04 47.1199 9.0713 44.0797 9.0713 40.3294V35.7388H9.06583V26.0258C9.06583 25.5189 9.10315 25.0208 9.17521 24.534C4.12951 22.9297 0.477219 18.2098 0.477219 12.6328C0.477219 6.62157 4.71907 1.62137 10.3695 0.421824L12.3566 0ZM9.06589 4.3073C5.9331 5.77515 3.7679 8.94945 3.7679 12.6328C3.7679 16.3181 5.93467 19.4985 9.06589 20.9651V4.3073ZM66.4662 67.6144V71.5524C66.4662 75.3117 63.4179 78.3641 59.6545 78.3641H49.6618V81.6548H59.6545C65.2367 81.6548 69.7569 77.1277 69.7569 71.5524V64.8065H69.7568V57.2432C69.7568 53.4979 72.7826 50.4541 76.5268 50.4317L76.5685 50.4318H78.8281V50.4315V47.1411V47.1409H76.5685L76.5272 47.141C72.7869 47.1187 69.7568 44.0789 69.7568 40.3294V35.7388H69.7624V26.0258C69.7624 25.5189 69.725 25.0208 69.653 24.534C74.6987 22.9297 78.351 18.2098 78.351 12.6328C78.351 6.62157 74.1091 1.62137 68.4586 0.421824L66.4716 0V18.5657C64.6748 16.9243 62.2834 15.9234 59.66 15.9234H49.6618V19.2141H59.66C63.4193 19.2141 66.4717 22.2624 66.4717 26.0258V31.461H66.4661V40.3294C66.4661 43.8694 68.2868 46.9823 71.0408 48.7862C68.2854 50.5912 66.4661 53.7063 66.4661 57.2432V67.6144H66.4662ZM32.5118 63.6383C29.6472 63.6383 27.3235 61.3146 27.3235 58.45H24.0328C24.0328 63.132 27.8298 66.929 32.5118 66.929C35.3155 66.929 37.8018 65.5675 39.3455 63.4696C40.8892 65.5675 43.3755 66.929 46.1792 66.929C50.8612 66.929 54.6581 63.132 54.6581 58.45H51.3675C51.3675 61.3146 49.0438 63.6383 46.1792 63.6383C43.3145 63.6383 40.9909 61.3146 40.9909 58.45V51.7007L47.6608 48.3657L46.1892 45.4224L39.3455 48.8443L32.5018 45.4224L31.0301 48.3657L37.7002 51.7007V58.45H37.7001C37.7001 61.3146 35.3764 63.6383 32.5118 63.6383ZM50.2267 39.1283C52.5317 39.1283 54.4003 37.2597 54.4003 34.9546C54.4003 32.6496 52.5317 30.7809 50.2267 30.7809C47.9216 30.7809 46.053 32.6496 46.053 34.9546C46.053 37.2597 47.9216 39.1283 50.2267 39.1283ZM32.6381 34.9546C32.6381 37.2597 30.7694 39.1283 28.4644 39.1283C26.1593 39.1283 24.2907 37.2597 24.2907 34.9546C24.2907 32.6496 26.1593 30.7809 28.4644 30.7809C30.7694 30.7809 32.6381 32.6496 32.6381 34.9546ZM69.7623 20.9651V4.3073C72.8951 5.77515 75.0603 8.94945 75.0603 12.6328C75.0603 16.3181 72.8935 19.4985 69.7623 20.9651Z" fill="black"/>
<path d="M102.011 23.1237H114.281V81.475H102.011V23.1237Z" fill="black"/>
<path d="M121.929 31.3001C120.516 29.9919 119.806 28.3628 119.806 26.4251C119.806 24.4875 120.516 22.8584 121.929 21.5502C123.343 20.2419 125.182 19.5817 127.435 19.5817C129.688 19.5817 131.527 20.2111 132.941 21.4699C134.354 22.7288 135.064 24.3024 135.064 26.1906C135.064 28.2332 134.354 29.924 132.941 31.263C131.527 32.6021 129.688 33.2686 127.435 33.2686C125.182 33.2686 123.343 32.6145 121.929 31.3001ZM121.3 39.1617H133.57V81.4751H121.3V39.1617Z" fill="black"/>
<path d="M176.338 41.2474C179.566 43.0554 182.09 45.5978 183.93 48.8745C185.763 52.1512 186.682 55.9648 186.682 60.3153C186.682 64.6657 185.763 68.4793 183.93 71.756C182.09 75.0327 179.566 77.5751 176.338 79.3831C173.116 81.1912 169.536 82.0983 165.598 82.0983C159.778 82.0983 155.346 80.2656 152.303 76.5939V81.4689H140.583V23.1237H152.853V43.6478C155.945 40.2415 160.192 38.5384 165.598 38.5384C169.53 38.5384 173.11 39.4393 176.338 41.2536V41.2474ZM171.227 68.8495C173.246 66.7267 174.258 63.882 174.258 60.3153C174.258 56.7485 173.246 53.9038 171.227 51.781C169.209 49.6582 166.623 48.5968 163.481 48.5968C160.34 48.5968 157.754 49.6582 155.735 51.781C153.717 53.9038 152.705 56.7485 152.705 60.3153C152.705 63.882 153.717 66.7267 155.735 68.8495C157.754 70.9723 160.34 72.0337 163.481 72.0337C166.623 72.0337 169.209 70.9723 171.227 68.8495Z" fill="black"/>
<path d="M190.473 23.1237H202.743V81.475H190.473V23.1237Z" fill="black"/>
<path d="M241.931 43.2159C245.443 46.3383 247.202 51.0405 247.202 57.3347V81.475H235.716V76.2051C233.408 80.136 229.106 82.1045 222.816 82.1045C219.563 82.1045 216.743 81.5553 214.36 80.4507C211.972 79.3523 210.151 77.8281 208.892 75.8904C207.633 73.9528 207.003 71.7498 207.003 69.2876C207.003 65.3568 208.484 62.2652 211.447 60.0067C214.41 57.7544 218.983 56.6251 225.174 56.6251H234.926C234.926 53.9531 234.111 51.8921 232.488 50.4543C230.865 49.0103 228.427 48.2945 225.174 48.2945C222.921 48.2945 220.705 48.6462 218.527 49.3559C216.348 50.0655 214.502 51.022 212.984 52.2253L208.577 43.654C210.885 42.0311 213.65 40.7722 216.879 39.8775C220.1 38.9889 223.421 38.5384 226.828 38.5384C233.383 38.5384 238.419 40.0996 241.931 43.2159ZM231.47 72.3916C233.093 71.4227 234.247 69.9911 234.932 68.109V63.7833H226.513C221.477 63.7833 218.965 65.437 218.965 68.7384C218.965 70.312 219.582 71.5585 220.81 72.4718C222.045 73.3912 223.736 73.8479 225.884 73.8479C228.032 73.8479 229.84 73.3666 231.47 72.3916Z" fill="black"/>
<path d="M289.655 41.2474C292.883 43.0554 295.408 45.5978 297.247 48.8745C299.08 52.1512 300 55.9648 300 60.3153C300 64.6657 299.08 68.4793 297.247 71.756C295.408 75.0327 292.883 77.5751 289.655 79.3831C286.434 81.1912 282.854 82.0983 278.916 82.0983C273.095 82.0983 268.664 80.2656 265.621 76.5939V81.4689H253.9V23.1237H266.17V43.6478C269.263 40.2415 273.509 38.5384 278.916 38.5384C282.848 38.5384 286.427 39.4393 289.655 41.2536V41.2474ZM284.545 68.8495C286.563 66.7267 287.575 63.882 287.575 60.3153C287.575 56.7485 286.563 53.9038 284.545 51.781C282.527 49.6582 279.94 48.5968 276.799 48.5968C273.657 48.5968 271.071 49.6582 269.053 51.781C267.034 53.9038 266.022 56.7485 266.022 60.3153C266.022 63.882 267.034 66.7267 269.053 68.8495C271.071 70.9723 273.657 72.0337 276.799 72.0337C279.94 72.0337 282.527 70.9723 284.545 68.8495Z" fill="black"/>
</svg>
